<?xml version="1.0" ?><svg id="Outline" viewBox="0 0 512 512" xmlns="http://www.w3.org/2000/svg"><defs><style>.cls-1{fill:#262626;}</style></defs><path class="cls-1" d="M256.09,266a99.83,99.83,0,1,0-70.66-29.22A99.61,99.61,0,0,0,256.09,266ZM201.47,111.56a77.24,77.24,0,1,1-22.62,54.61A77,77,0,0,1,201.47,111.56Z"/><path class="cls-1" d="M256.09,281.83c-84.6,0-153.43,68.82-153.43,153.42A11.34,11.34,0,0,0,114,446.59H398.17a11.34,11.34,0,0,0,11.34-11.34C409.51,350.65,340.68,281.83,256.09,281.83ZM125.83,423.91c5.76-66.8,62-119.4,130.26-119.4s124.49,52.6,130.25,119.4Z"/></svg>